Motion_pl01
version=1
nRows=6
nColumns=43
inDegrees=yes
endheader
time	pelvis_tilt	pelvis_list	pelvis_rotation	pelvis_tx	pelvis_ty	pelvis_tz	hip_flexion_r	hip_adduction_r	hip_rotation_r	knee_angle_r	ankle_angle_r	subtalar_angle_r	mtp_angle_r	hip_flexion_l	hip_adduction_l	hip_rotation_l	knee_angle_l	ankle_angle_l	subtalar_angle_l	mtp_angle_l	lumbar_extension	lumbar_bending	lumbar_rotation	neck_flexion	neck_lateral_bending	neck_rotation	arm_flex_r	arm_add_r	arm_rot_r	elbow_flex_r	pro_sup_r	wrist_flex_r	wrist_dev_r	hand_finger_flex_r	arm_flex_l	arm_add_l	arm_rot_l	elbow_flex_l	pro_sup_l	wrist_flex_l	wrist_dev_l	hand_finger_flex_l
      0.00250000	     -0.06130045	     -3.37983231	     93.92638864	      0.01022984	      1.82688450	      1.88692660	     63.84800950	     -5.79099656	      6.14948668	   -127.06308828	     28.08311286	      3.90219719	     11.12582503	     63.79563485	      0.09676548	      8.42249344	   -125.86399470	     30.81272116	     -5.46560254	      8.92941787	    -54.36330302	      0.41622195	     -0.51257595	     26.14360736	      1.71386756	     -3.52199939	     67.41029460	    -18.39042006	     14.10205391	     51.54541647	     77.94664938	    -35.67956908	     11.71938160	     29.45956711	     65.10932791	    -12.54284313	      5.92574955	     65.26019101	    118.48615530	    -15.63547399	     19.31155392	     66.01112088
      0.00500000	     -0.07997239	     -3.62996325	     93.95396440	      0.01008393	      1.82590650	      1.88631477	     64.13517601	     -5.82115969	      6.22218577	   -127.17522142	     28.02631280	      3.83907539	     11.12272333	     64.05458626	      0.18791835	      8.42663597	   -125.96071888	     30.92753702	     -5.48132250	      8.95166060	    -54.15550015	      0.44849458	     -0.62710550	     26.17645077	      1.63890036	     -3.45806657	     68.51071735	    -18.33134997	     14.85900158	     51.72361347	     77.68727363	    -35.61437533	     11.47115191	     29.58313634	     66.08923534	    -12.65044606	      6.56858187	     65.39586962	    118.59865496	    -15.33449417	     19.08706746	     66.21179788
      0.00750000	     -0.06727632	     -3.79317691	     93.95625642	      0.01009594	      1.82514615	      1.88561682	     64.30820372	     -5.80681046	      6.25539347	   -127.27507948	     28.03516367	      3.86060381	     11.13212660	     64.21539246	      0.20150386	      8.44998470	   -126.06408054	     30.94305457	     -5.50513850	      8.95326144	    -54.05381148	      0.45952964	     -0.67514272	     26.33611306	      1.60938495	     -3.39427094	     69.52802935	    -18.10959753	     15.12282888	     51.96096885	     77.61286140	    -35.56450615	     11.34930950	     29.62824953	     67.10019816	    -12.46726387	      6.82675254	     65.36960019	    118.61692927	    -15.26382674	     19.02402929	     66.24083265
      0.01000000	     -0.06678294	     -3.96257951	     93.96433562	      0.00996455	      1.82418439	      1.88491353	     64.50944725	     -5.82719479	      6.30832082	   -127.42333800	     27.97255345	      3.93411027	     11.15410613	     64.40992952	      0.23001958	      8.43401489	   -126.22392647	     30.89081532	     -5.56184541	      8.93967071	    -53.90412179	      0.46738747	     -0.69434610	     26.21390685	      1.66053891	     -3.32471187	     70.65281768	    -18.18885472	     16.00436506	     52.13953381	     77.33847063	    -35.43969419	     11.18490801	     29.79318028	     68.18416338	    -12.49152353	      7.61203755	     65.37972499	    118.54162744	    -15.02909911	     18.93156050	     66.40500210
      0.01250000	     -0.05362719	     -4.12138913	     93.96738357	      0.00997812	      1.82347485	      1.88418091	     64.66633296	     -5.81692108	      6.33795783	   -127.51871489	     27.99296118	      3.95599935	     11.17009410	     64.55217165	      0.23099181	      8.45106910	   -126.31822547	     30.93530734	     -5.59395735	      8.94112261	    -53.81198487	      0.47748043	     -0.73481009	     26.39568166	      1.62896660	     -3.28543556	     71.68473939	    -17.95317639	     16.23614127	     52.37569448	     77.24497353	    -35.39433045	     11.07787592	     29.83530818	     69.21399239	    -12.30025443	      7.89421402	     65.36346383	    118.52564748	    -14.98715026	     18.88089136	     66.42051601
      0.01500000	     -0.05210674	     -4.25114431	     93.96802787	      0.00990924	      1.82261103	      1.88340777	     64.80912913	     -5.82734321	      6.38114858	   -127.66866169	     27.94263754	      4.01344261	     11.20139491	     64.68673298	      0.22877733	      8.43416048	   -126.47351748	     30.91800445	     -5.62858906	      8.92487831	    -53.70446482	      0.46619272	     -0.74263214	     26.29302107	      1.70257385	     -3.25257160	     72.81462353	    -18.00812919	     17.04049573	     52.57220153	     76.92844537	    -35.26590814	     10.97571148	     29.97742167	     70.33317994	    -12.32656207	      8.74208206	     65.37471608	    118.38901545	    -14.81541468	     18.81313613	     66.54622633
